<mxfile host="app.diagrams.net" modified="2020-12-16T09:27:07.809Z" agent="5.0 (Macintosh; Intel Mac OS X 10_13_6) AppleWebKit/537.36 (KHTML, like Gecko) Chrome/87.0.4280.67 Safari/537.36" etag="J_mNly4XaWHRiUB463iL" version="13.10.8" type="github">
  <diagram id="DZR8nSab61ylRmtYSsmc" name="Page-1">
    <mxGraphModel dx="946" dy="624" grid="1" gridSize="10" guides="1" tooltips="1" connect="1" arrows="1" fold="1" page="1" pageScale="1" pageWidth="827" pageHeight="1169" math="0" shadow="0">
      <root>
        <mxCell id="0" />
        <mxCell id="1" parent="0" />
        <mxCell id="d-TpVdmoXW99r3Pi8-e1-3" value="" style="edgeStyle=orthogonalEdgeStyle;rounded=0;orthogonalLoop=1;jettySize=auto;html=1;" edge="1" parent="1" source="d-TpVdmoXW99r3Pi8-e1-1" target="d-TpVdmoXW99r3Pi8-e1-2">
          <mxGeometry relative="1" as="geometry" />
        </mxCell>
        <mxCell id="d-TpVdmoXW99r3Pi8-e1-1" value="用户创建ios订单" style="rounded=1;whiteSpace=wrap;html=1;" vertex="1" parent="1">
          <mxGeometry x="330" y="60" width="120" height="60" as="geometry" />
        </mxCell>
        <mxCell id="d-TpVdmoXW99r3Pi8-e1-5" value="" style="edgeStyle=orthogonalEdgeStyle;rounded=0;orthogonalLoop=1;jettySize=auto;html=1;" edge="1" parent="1" source="d-TpVdmoXW99r3Pi8-e1-2" target="d-TpVdmoXW99r3Pi8-e1-4">
          <mxGeometry relative="1" as="geometry" />
        </mxCell>
        <mxCell id="d-TpVdmoXW99r3Pi8-e1-6" value="否" style="edgeLabel;html=1;align=center;verticalAlign=middle;resizable=0;points=[];" vertex="1" connectable="0" parent="d-TpVdmoXW99r3Pi8-e1-5">
          <mxGeometry x="-0.1333" y="-1" relative="1" as="geometry">
            <mxPoint as="offset" />
          </mxGeometry>
        </mxCell>
        <mxCell id="d-TpVdmoXW99r3Pi8-e1-10" value="" style="edgeStyle=orthogonalEdgeStyle;rounded=0;orthogonalLoop=1;jettySize=auto;html=1;" edge="1" parent="1" source="d-TpVdmoXW99r3Pi8-e1-2" target="d-TpVdmoXW99r3Pi8-e1-9">
          <mxGeometry relative="1" as="geometry" />
        </mxCell>
        <mxCell id="d-TpVdmoXW99r3Pi8-e1-11" value="是" style="edgeLabel;html=1;align=center;verticalAlign=middle;resizable=0;points=[];" vertex="1" connectable="0" parent="d-TpVdmoXW99r3Pi8-e1-10">
          <mxGeometry x="-0.2333" y="2" relative="1" as="geometry">
            <mxPoint as="offset" />
          </mxGeometry>
        </mxCell>
        <mxCell id="d-TpVdmoXW99r3Pi8-e1-2" value="是否存在商品" style="rhombus;whiteSpace=wrap;html=1;rounded=1;" vertex="1" parent="1">
          <mxGeometry x="350" y="190" width="80" height="80" as="geometry" />
        </mxCell>
        <mxCell id="d-TpVdmoXW99r3Pi8-e1-8" value="" style="edgeStyle=orthogonalEdgeStyle;rounded=0;orthogonalLoop=1;jettySize=auto;html=1;" edge="1" parent="1" source="d-TpVdmoXW99r3Pi8-e1-4" target="d-TpVdmoXW99r3Pi8-e1-7">
          <mxGeometry relative="1" as="geometry">
            <Array as="points">
              <mxPoint x="230" y="390" />
            </Array>
          </mxGeometry>
        </mxCell>
        <mxCell id="d-TpVdmoXW99r3Pi8-e1-4" value="抛出异常" style="whiteSpace=wrap;html=1;rounded=1;" vertex="1" parent="1">
          <mxGeometry x="170" y="200" width="120" height="60" as="geometry" />
        </mxCell>
        <mxCell id="d-TpVdmoXW99r3Pi8-e1-7" value="结束" style="shape=hexagon;perimeter=hexagonPerimeter2;whiteSpace=wrap;html=1;fixedSize=1;rounded=1;" vertex="1" parent="1">
          <mxGeometry x="330" y="350" width="120" height="80" as="geometry" />
        </mxCell>
        <mxCell id="d-TpVdmoXW99r3Pi8-e1-13" value="" style="edgeStyle=orthogonalEdgeStyle;rounded=0;orthogonalLoop=1;jettySize=auto;html=1;" edge="1" parent="1" source="d-TpVdmoXW99r3Pi8-e1-9" target="d-TpVdmoXW99r3Pi8-e1-12">
          <mxGeometry relative="1" as="geometry" />
        </mxCell>
        <mxCell id="d-TpVdmoXW99r3Pi8-e1-9" value="组装订单信息" style="whiteSpace=wrap;html=1;rounded=1;" vertex="1" parent="1">
          <mxGeometry x="490" y="200" width="120" height="60" as="geometry" />
        </mxCell>
        <mxCell id="d-TpVdmoXW99r3Pi8-e1-14" value="" style="edgeStyle=orthogonalEdgeStyle;rounded=0;orthogonalLoop=1;jettySize=auto;html=1;" edge="1" parent="1" source="d-TpVdmoXW99r3Pi8-e1-12" target="d-TpVdmoXW99r3Pi8-e1-7">
          <mxGeometry relative="1" as="geometry" />
        </mxCell>
        <mxCell id="d-TpVdmoXW99r3Pi8-e1-12" value="订单落库" style="shape=cylinder;whiteSpace=wrap;html=1;boundedLbl=1;backgroundOutline=1;rounded=1;" vertex="1" parent="1">
          <mxGeometry x="520" y="350" width="60" height="80" as="geometry" />
        </mxCell>
      </root>
    </mxGraphModel>
  </diagram>
</mxfile>
